<?xml version="1.0" encoding="UTF-8"?>
<!DOCTYPE svg PUBLIC "-//W3C//DTD SVG 1.1//EN" "http://www.w3.org/Graphics/SVG/1.1/DTD/svg11.dtd">
<svg xmlns="http://www.w3.org/2000/svg" version="1.1" width="512px" height="512px" style="shape-rendering:geometricPrecision; text-rendering:geometricPrecision; image-rendering:optimizeQuality; fill-rule:evenodd; clip-rule:evenodd" xmlns:xlink="http://www.w3.org/1999/xlink">
<g><path style="opacity:0.99" fill="#1195db" d="M 234.5,0.5 C 323.761,-4.29394 391.594,31.0394 438,106.5C 471.066,170.207 473.066,234.874 444,300.5C 436.129,316.691 426.296,331.524 414.5,345C 434.038,373.241 453.205,401.741 472,430.5C 473.472,436.076 472.305,440.909 468.5,445C 461.833,449.667 455.167,454.333 448.5,459C 435.1,458.85 421.933,457.017 409,453.5C 406.412,465.775 404.078,478.109 402,490.5C 401.333,491.833 400.667,493.167 400,494.5C 392.833,499.667 385.667,504.833 378.5,510C 371.676,511.945 366.176,510.112 362,504.5C 342.333,475.167 322.667,445.833 303,416.5C 302.255,415.01 301.088,414.01 299.5,413.5C 270.165,420.128 240.832,420.128 211.5,413.5C 210.833,413.833 210.167,414.167 209.5,414.5C 188.419,446.412 166.752,477.912 144.5,509C 139.343,511.168 134.343,510.835 129.5,508C 123.245,503.622 117.078,499.122 111,494.5C 110.333,493.167 109.667,491.833 109,490.5C 106.922,478.109 104.588,465.775 102,453.5C 89.067,457.017 75.9003,458.85 62.5,459C 55.8333,454.333 49.1667,449.667 42.5,445C 37.746,439.28 37.246,433.114 41,426.5C 59.5,399.333 78,372.167 96.5,345C 48.5823,285.749 35.0823,219.249 56,145.5C 82.1629,71.3374 133.33,24.504 209.5,5C 217.972,3.47867 226.306,1.97867 234.5,0.5 Z M 253.5,23.5 C 332.82,26.7178 389.987,63.7178 425,134.5C 449.07,193.814 445.07,251.148 413,306.5C 370.479,369.674 310.979,398.507 234.5,393C 175.552,384.966 130.052,356.133 98,306.5C 65.9297,251.146 61.9297,193.812 86,134.5C 111.908,79.9467 154.074,44.78 212.5,29C 226.175,26.0836 239.842,24.2503 253.5,23.5 Z M 177.5,119.5 C 187.833,119.5 198.167,119.5 208.5,119.5C 208.5,133.833 208.5,148.167 208.5,162.5C 198.167,162.5 187.833,162.5 177.5,162.5C 177.5,148.167 177.5,133.833 177.5,119.5 Z M 177.5,177.5 C 187.833,177.5 198.167,177.5 208.5,177.5C 208.5,192.167 208.5,206.833 208.5,221.5C 197.833,221.5 187.167,221.5 176.5,221.5C 177.328,206.849 177.661,192.183 177.5,177.5 Z M 271.5,215.5 C 291.337,214.172 311.337,214.172 331.5,215.5C 324.197,231.793 314.197,246.126 301.5,258.5C 295.439,253.608 290.272,247.941 286,241.5C 280.885,232.932 276.052,224.266 271.5,215.5 Z M 112.5,363.5 C 123.657,371.811 134.991,379.977 146.5,388C 159.132,395.15 172.132,401.483 185.5,407C 168.662,431.994 151.662,456.827 134.5,481.5C 132.803,480.636 131.637,479.303 131,477.5C 128.775,463.814 126.441,450.148 124,436.5C 122.08,431.083 118.247,428.083 112.5,427.5C 98.5909,429.982 84.7575,432.649 71,435.5C 69.2287,434.696 67.7287,433.529 66.5,432C 82.2253,409.368 97.5587,386.535 112.5,363.5 Z M 396.5,363.5 C 399.534,366.505 402.368,369.838 405,373.5C 417.775,393.273 430.942,412.773 444.5,432C 443.271,433.529 441.771,434.696 440,435.5C 426.242,432.649 412.409,429.982 398.5,427.5C 392.729,428.113 388.895,431.113 387,436.5C 384.559,450.148 382.225,463.814 380,477.5C 379.363,479.303 378.197,480.636 376.5,481.5C 359.338,456.827 342.338,431.994 325.5,407C 352.139,397.03 375.806,382.53 396.5,363.5 Z"/></g>
<g><path style="opacity:0.983" fill="#1295db" d="M 258.5,102.5 C 283.226,103.497 307.893,103.83 332.5,103.5C 331.179,124.131 331.179,144.798 332.5,165.5C 333.5,166 334.5,166.5 335.5,167C 346.932,167.99 358.265,167.49 369.5,165.5C 370.662,170.131 370.828,174.798 370,179.5C 369.626,180.416 369.126,181.25 368.5,182C 352.335,184.539 336.335,183.872 320.5,180C 318.19,178.363 316.69,176.196 316,173.5C 315.5,155.17 315.333,136.836 315.5,118.5C 302.167,118.5 288.833,118.5 275.5,118.5C 275.603,140.092 270.103,160.092 259,178.5C 254.291,184.876 248.625,190.209 242,194.5C 238.03,189.525 233.197,185.691 227.5,183C 247.9,170.718 258.4,152.551 259,128.5C 259.536,119.82 259.37,111.154 258.5,102.5 Z"/></g>
<g><path style="opacity:0.989" fill="#1296db" d="M 160.5,104.5 C 182.005,104.63 203.672,104.463 225.5,104C 224.669,170.096 224.169,236.263 224,302.5C 224.134,308.808 221.634,313.641 216.5,317C 210.913,318.094 205.246,318.594 199.5,318.5C 194.587,318.487 189.753,318.154 185,317.5C 184.619,312.311 183.453,307.311 181.5,302.5C 182.333,302.167 183.167,301.833 184,301.5C 191.421,303.256 198.921,303.756 206.5,303C 207,302.5 207.5,302 208,301.5C 208.5,279.836 208.667,258.169 208.5,236.5C 197.5,236.5 186.5,236.5 175.5,236.5C 175.172,261.307 170.672,285.307 162,308.5C 160.005,313.16 157.505,317.494 154.5,321.5C 150.5,316.833 146.167,312.5 141.5,308.5C 152.44,288.99 158.274,267.99 159,245.5C 161.316,214.213 162.482,182.88 162.5,151.5C 162.721,135.634 162.054,119.967 160.5,104.5 Z M 177.5,119.5 C 177.5,133.833 177.5,148.167 177.5,162.5C 187.833,162.5 198.167,162.5 208.5,162.5C 208.5,148.167 208.5,133.833 208.5,119.5C 198.167,119.5 187.833,119.5 177.5,119.5 Z M 177.5,177.5 C 177.661,192.183 177.328,206.849 176.5,221.5C 187.167,221.5 197.833,221.5 208.5,221.5C 208.5,206.833 208.5,192.167 208.5,177.5C 198.167,177.5 187.833,177.5 177.5,177.5 Z"/></g>
<g><path style="opacity:0.989" fill="#1295db" d="M 235.5,198.5 C 240.084,199.277 244.75,199.777 249.5,200C 281.182,200.579 312.848,200.579 344.5,200C 347.87,203.035 350.87,206.368 353.5,210C 343.046,232.256 329.38,252.256 312.5,270C 331.067,285.956 352.067,297.789 375.5,305.5C 371.497,310.18 367.997,315.18 365,320.5C 340.914,311.801 319.581,298.801 301,281.5C 282.775,298.701 262.108,312.368 239,322.5C 236.084,317.085 232.584,312.085 228.5,307.5C 251.305,298.83 271.638,286.33 289.5,270C 274.475,253.789 263.142,235.289 255.5,214.5C 248.833,214.833 242.167,215.167 235.5,215.5C 235.5,209.833 235.5,204.167 235.5,198.5 Z M 271.5,215.5 C 276.052,224.266 280.885,232.932 286,241.5C 290.272,247.941 295.439,253.608 301.5,258.5C 314.197,246.126 324.197,231.793 331.5,215.5C 311.337,214.172 291.337,214.172 271.5,215.5 Z"/></g>
</svg>
